<svg width="1200" height="448" viewBox="0 0 1200 448" fill="none" xmlns="http://www.w3.org/2000/svg">
<g clip-path="url(#clip0)">
<rect width="1200" height="448" fill="white"/>
<path d="M593.922 257.289C593.922 289.841 586.5 315.948 571.656 335.609C556.943 355.141 537.021 364.906 511.891 364.906C490.536 364.906 473.284 357.484 460.133 342.641V442.25H403.688V149.672H456.031L457.984 170.375C471.656 153.969 489.495 145.766 511.5 145.766C537.542 145.766 557.789 155.401 572.242 174.672C586.695 193.943 593.922 220.505 593.922 254.359V257.289ZM537.477 253.188C537.477 233.526 533.961 218.357 526.93 207.68C520.029 197.003 509.938 191.664 496.656 191.664C478.948 191.664 466.773 198.435 460.133 211.977V298.5C467.034 312.432 479.339 319.398 497.047 319.398C524 319.398 537.477 297.328 537.477 253.188ZM747.828 202.602C740.146 201.56 733.375 201.039 727.516 201.039C706.161 201.039 692.164 208.266 685.523 222.719V361H629.078V149.672H682.398L683.961 174.867C695.289 155.466 710.979 145.766 731.031 145.766C737.281 145.766 743.141 146.612 748.609 148.305L747.828 202.602ZM759.352 253.383C759.352 232.419 763.388 213.734 771.461 197.328C779.534 180.922 791.122 168.227 806.227 159.242C821.461 150.258 839.104 145.766 859.156 145.766C887.672 145.766 910.914 154.49 928.883 171.938C946.982 189.385 957.073 213.083 959.156 243.031L959.547 257.484C959.547 289.906 950.497 315.948 932.398 335.609C914.299 355.141 890.016 364.906 859.547 364.906C829.078 364.906 804.729 355.141 786.5 335.609C768.401 316.078 759.352 289.516 759.352 255.922V253.383ZM815.797 257.484C815.797 277.536 819.573 292.901 827.125 303.578C834.677 314.125 845.484 319.398 859.547 319.398C873.219 319.398 883.896 314.19 891.578 303.773C899.26 293.227 903.102 276.43 903.102 253.383C903.102 233.721 899.26 218.487 891.578 207.68C883.896 196.872 873.089 191.469 859.156 191.469C845.354 191.469 834.677 196.872 827.125 207.68C819.573 218.357 815.797 234.958 815.797 257.484ZM1009.74 361V191.078H978.297V149.672H1009.74V131.703C1009.74 108.005 1016.51 89.6458 1030.05 76.625C1043.73 63.474 1062.8 56.8984 1087.28 56.8984C1095.09 56.8984 1104.66 58.2005 1115.99 60.8047L1115.41 104.555C1110.72 103.383 1104.99 102.797 1098.22 102.797C1076.99 102.797 1066.38 112.758 1066.38 132.68V149.672H1108.38V191.078H1066.38V361H1009.74Z" fill="#04D361"/>
<path d="M249.242 375.906C218.253 375.906 192.992 366.401 173.461 347.391C154.06 328.38 144.359 303.055 144.359 271.414V265.945C144.359 244.721 148.461 225.776 156.664 209.109C164.867 192.312 176.456 179.422 191.43 170.438C206.534 161.323 223.721 156.766 242.992 156.766C271.898 156.766 294.62 165.88 311.156 184.109C327.823 202.339 336.156 228.185 336.156 261.648V284.695H201.586C203.409 298.497 208.878 309.565 217.992 317.898C227.237 326.232 238.891 330.398 252.953 330.398C274.698 330.398 291.69 322.521 303.93 306.766L331.664 337.82C323.201 349.799 311.742 359.174 297.289 365.945C282.836 372.586 266.82 375.906 249.242 375.906ZM242.797 202.469C231.599 202.469 222.484 206.245 215.453 213.797C208.552 221.349 204.125 232.156 202.172 246.219H280.688V241.727C280.427 229.227 277.042 219.591 270.531 212.82C264.021 205.919 254.776 202.469 242.797 202.469Z" fill="#6B2AEE"/>
<path fill-rule="evenodd" clip-rule="evenodd" d="M257.623 47.9858C303.834 46.4786 343.226 45.1477 345.158 45.0261C347.09 44.9061 348.534 45.1914 348.363 45.6597C348.193 46.1275 333.427 57.6644 315.55 71.2954C297.673 84.9264 281.049 97.6021 278.608 99.4638L274.169 102.849L286.729 136.724L299.288 170.597L292.53 167.73C276.348 160.866 256.055 161.826 227.289 170.821C191.459 182.024 162.585 201.701 150.58 223.099L148.523 226.766L135.921 192.779L123.321 158.794L113.157 159.026C107.566 159.154 96.0575 159.445 87.5828 159.675L72.1731 160.093L78.4919 177.135C84.3324 192.887 85.0443 194.176 87.9026 194.186C97.3819 194.217 104.328 205.772 100.476 215.102L98.243 220.514L113.243 246.951C121.493 261.491 128.015 274.015 127.737 274.781C127.459 275.549 124.151 277.351 120.385 278.788L113.54 281.398L109.591 275.116L105.642 268.832L103.983 277.774C103.07 282.691 101.474 286.667 100.434 286.612C98.1191 286.487 98.705 289.48 93.9687 253.578L90.0088 223.555L84.9716 220.72C76.183 215.774 74.1077 202.776 81.137 196.695C83.2995 194.823 82.9974 193.382 77.1102 177.504L70.7447 160.336L57.5547 160.597C36.4766 161.016 36.8441 161.343 47.9249 152.031C115.81 94.9844 167.254 52.8098 170.09 51.8799C172.022 51.2461 211.412 49.493 257.623 47.9858Z" fill="black"/>
</g>
<defs>
<clipPath id="clip0">
<rect width="1200" height="448" fill="white"/>
</clipPath>
</defs>
</svg>
