<svg width="16" height="16" viewBox="0 0 16 16" fill="none" xmlns="http://www.w3.org/2000/svg">
<g clip-path="url(#clip0)">
<path d="M9.4043 15.1758C8.11523 15.1758 7.06641 14.7539 6.25781 13.9102C5.44922 13.0605 5.04492 11.9268 5.04492 10.5088V10.21C5.04492 9.2666 5.22363 8.42578 5.58105 7.6875C5.94434 6.94336 6.44824 6.36328 7.09277 5.94727C7.74316 5.52539 8.44629 5.31445 9.20215 5.31445C10.4385 5.31445 11.3994 5.72168 12.085 6.53613C12.7705 7.35059 13.1133 8.5166 13.1133 10.0342V10.7109H6.6709C6.69434 11.6484 6.9668 12.4072 7.48828 12.9873C8.01562 13.5615 8.68359 13.8486 9.49219 13.8486C10.0664 13.8486 10.5527 13.7314 10.9512 13.4971C11.3496 13.2627 11.6982 12.9521 11.9971 12.5654L12.9902 13.3389C12.1934 14.5635 10.998 15.1758 9.4043 15.1758ZM9.20215 6.65039C8.5459 6.65039 7.99512 6.89062 7.5498 7.37109C7.10449 7.8457 6.8291 8.51367 6.72363 9.375H11.4873V9.25195C11.4404 8.42578 11.2178 7.78711 10.8193 7.33594C10.4209 6.87891 9.88184 6.65039 9.20215 6.65039Z" fill="#6B2AEE"/>
<path fill-rule="evenodd" clip-rule="evenodd" d="M10.0849 1.08507C12.0512 0.995389 13.7274 0.917081 13.8097 0.910969C13.892 0.904921 13.953 0.91552 13.9451 0.934509C13.9374 0.953478 13.2955 1.42791 12.5188 1.98871C11.7421 2.54952 11.0198 3.07103 10.9138 3.14762L10.7209 3.28691L11.2132 4.64494L11.7055 6.00291L11.4218 5.89154C10.7423 5.62489 9.87846 5.6763 8.64455 6.05697C7.10766 6.53111 5.85608 7.34258 5.31944 8.21291L5.22749 8.36204L4.73355 6.99952L4.23963 5.63707L3.80729 5.65279C3.56946 5.66143 3.07988 5.68039 2.71934 5.69494L2.06376 5.72144L2.31144 6.40466C2.54037 7.03616 2.56905 7.0877 2.69054 7.0863C3.09347 7.08161 3.37456 7.54319 3.19935 7.92181L3.09777 8.14144L3.70295 9.19803C4.03581 9.77914 4.29768 10.2801 4.28492 10.3111C4.27214 10.3422 4.12932 10.417 3.96747 10.4773L3.67327 10.5868L3.5131 10.336L3.35297 10.0851L3.27145 10.4466C3.22659 10.6455 3.15385 10.8068 3.10973 10.8052C3.01147 10.8016 3.0327 10.9219 2.87546 9.47729L2.744 8.26918L2.53335 8.15803C2.16582 7.96409 2.09357 7.4413 2.39985 7.19168C2.49408 7.11488 2.48301 7.05696 2.25225 6.4204L2.00274 5.73213L1.44171 5.75093C0.545166 5.78099 0.560386 5.79397 1.04287 5.41154C3.99872 3.06886 6.23741 1.33613 6.35913 1.29686C6.44204 1.27009 8.11866 1.17476 10.0849 1.08507Z" fill="black"/>
</g>
<defs>
<clipPath id="clip0">
<rect width="16" height="16" fill="white"/>
</clipPath>
</defs>
</svg>
